<?xml version="1.0" encoding="UTF-8"?>
<svg id="Layer_2" data-name="Layer 2" xmlns="http://www.w3.org/2000/svg" viewBox="0 0 726.15 726.15">
  <defs>
    <style>
      .cls-1 {
        fill: #1733ff;
      }

      .cls-2 {
        fill: #fff;
      }
    </style>
  </defs>
  <g id="Layer_1-2" data-name="Layer 1">
    <rect class="cls-1" width="726.15" height="726.15" rx="107.9" ry="107.9"/>
    <path class="cls-2" d="M479.14,274.15c-19.18,5.69-33.64,18.57-44.23,32.56-2.27,3-7.01.75-6.11-2.93,20.27-83.37-6.51-152.67-90-186.77-4.23-1.74-8.64,2.07-7.53,6.51,37.98,152.49-121.77,139.63-101.58,312.5.35,2.97-2.99,5-5.42,3.26-7.57-5.43-16.02-16.77-21.82-24.74-1.7-2.34-5.38-1.68-6.16,1.11-4.62,16.7-6.8,32.43-6.8,48.05,0,60.75,31.23,114.23,78.49,145.24,2.71,1.77,6.18-.76,5.26-3.87-2.43-8.16-3.8-16.77-3.91-25.67,0-5.47.35-11.06,1.2-16.26,1.98-13.09,6.53-25.55,14.16-36.9,26.19-39.32,78.7-77.3,70.32-128.87-.54-3.26,3.32-5.42,5.75-3.18,36.99,33.8,44.32,79.26,38.24,120.03-.52,3.54,3.92,5.43,6.16,2.66,5.66-7.08,12.57-13.3,20.08-17.97,1.87-1.16,4.37-.28,5.09,1.81,4.18,12.17,10.4,23.59,16.26,35.01,7.01,13.73,10.75,29.4,10.16,46-.3,8.07-1.63,15.88-3.87,23.31-.95,3.14,2.48,5.76,5.24,3.96,47.3-31,78.55-84.48,78.55-145.27,0-21.12-3.7-41.83-10.69-61.24-14.67-40.71-51.88-71.27-42.48-124.32.45-2.53-1.89-4.74-4.36-4.01Z"/>
  </g>
</svg>